<svg version="1" xmlns="http://www.w3.org/2000/svg" width="682.667" height="682.667" viewBox="0 0 512.000000 512.000000"><path d="M251.5 2.3l-2.8 2.3v24.7l-.1 24.6-2.7 1.1c-2.4 1-2.9 2.2-5 10.8-1.2 5.3-2.3 10.1-2.3 10.7-.1.6-3.8 1.1-8.3 1.3l-8.2.3-5.3 6.3c-2.9 3.4-6.4 7.7-7.7 9.4-1.9 2.6-3.1 3.2-6 3.2-2 0-4.1.4-4.8.8-3 1.9-3.7 9.8-1.2 12.8.5.7 3.7 2.2 7 3.4 3.3 1.3 6.6 3.2 7.4 4.4 2.2 3.1 1.8 7.4-.9 9.9-1.6 1.5-16.2 6.8-42.7 15.6-38.2 12.6-43.7 14.7-42.4 15.9.3.3-.4 1.1-1.5 1.9-2.9 2-2.5 4 2.5 13.9 2.5 4.8 4.5 8.8 4.5 8.8 0 .1-7.1.2-15.8.3-28.3.3-46.1 5.9-43.3 13.7.8 2 9.1 5.8 15.7 7.1 2.1.5 4.6 1 5.4 1.2.8.2 4.7.6 8.5.9 3.9.4 7.1.7 7.1.8.1 0 .5 2.3.9 5.1.3 2.7 1.5 10.6 2.5 17.5 1 6.8 1.8 12.6 1.6 12.7-.1.1-3.3.7-7.2 1.3-8.4 1.2-12.3 1.9-14.6 2.6-1.9.6-3.3 4.5-2.5 6.8.8 2.1 18.6 12.3 28.1 16.2 15.5 6.3 38.1 11.4 50.5 11.4 2.2 0 4.1.2 4.1.5s.9 4.7 2.1 9.8c1.9 8.8 8.7 43 9.4 47.2.1 1.1.6 4 .9 6.5.4 2.5 1.1 7 1.6 10s1.2 7.1 1.5 9c.3 1.9.7 4.6 1 6 .8 4.3 2 12.4 3 20.4.7 5.9 1.6 13 3 22.6.2 1.4.7 5 1 8 .3 3 .8 6.6 1 8 .2 1.4.9 7 1.5 12.5s1.2 11.3 1.5 13c.2 1.6.7 6.1 1 10 .4 3.8.9 7.8 1.1 8.7.1.9.6 5.9 1 11 .3 5.1.8 9.6 1.1 10.1.5.9 2 .8-22.2 1.1-25.2.4-23 .1-25.5 2.8-2.5 2.7-2.6 6.9-.1 9.9l1.9 2.4 98.6.3 98.7.2 2.3-2.5c3-3.2 2.9-7.7-.2-10.8-2.2-2.1-2.9-2.2-26.5-2.4-13.3 0-24.8-.1-25.4-.2-.7-.1-1.3-1-1.3-2.2 0-1.1 2.7-18.3 6.1-38.2 3.3-19.9 6.2-37.3 6.4-38.7.2-1.4 2-11.5 4-22.5 1.9-11 3.8-21.4 4.1-23 .2-1.7 1.3-7.7 2.4-13.5 1-5.8 2.1-12.1 2.4-14 .3-1.9.8-4.6 1.1-6 .3-1.4 2.4-12.1 4.6-23.9 2.1-11.7 4.3-23.1 4.8-25.2.5-2.1.7-4 .5-4.2-1.3-1.3 3.2-2.5 11.1-3 17.5-1.1 38.5-6.7 54-14.4 12-6 20.4-11.4 21-13.4.8-2.6-2-6.9-4.5-7-1.1-.1-2.3-.2-2.7-.3-.5-.1-3.3-.6-6.3-1.1-3-.5-5.9-.9-6.5-1-.5-.1-1.9-.3-3-.4-4.2-.3-4.4-1.1-2.9-10.1.7-4.7 1.6-10.8 1.9-13.5.3-2.8.7-5.9 1-7 .2-1.1.4-2.7.4-3.6.1-1.3 1.8-1.7 8.9-2.2 10.2-.7 11.9-1 20.3-3.7 7.9-2.4 10.9-4.5 10.9-7.3 0-3.3-1.1-4.4-6.6-6.6-9.8-3.8-20-5.3-38-5.4-15-.1-17.1-.3-16.6-1.7.3-.8 2.3-4.7 4.4-8.6 4.3-8 4.7-10.8 1.9-12.6-1-.6-1.7-1.7-1.4-2.4.3-.8-13.3-5.8-42.2-15.4-46.7-15.6-46.4-15.4-45.1-22.5.8-3.9 2.5-5.3 9.8-8 6.1-2.3 7.3-3.8 7.1-9.3-.1-5.4-1.9-7.2-7.2-7.2-3.2 0-4.2-.7-8.6-6.3-10.6-13.2-9.7-12.6-18.9-12.9-4.4-.2-8-.5-7.8-.8.2-.3-.1-1.7-.7-3.3-.6-1.5-1.3-3.8-1.6-5-.3-1.2-.9-4-1.4-6.2-1.3-6-2.1-7.5-4.2-7.5-1 0-2-.3-2-.8-.1-.4-.2-11.6-.3-25-.2-23-.3-24.4-2.2-26.3-3.2-3.2-7.7-3.4-10.9-.6zm-29.9 281.2c.2.5 1.9 13.4 3.9 28.5s3.8 28.6 4 30c.2 1.4.7 5 1 8 .4 3 .8 6.6 1 8 .2 1.4.7 5.4 1 9 .4 3.6.9 7.3 1 8.2.2.9.7 4.8 1 8.5.4 3.7.8 7.9 1 9.3.2 1.4.7 5.6 1 9.5.4 3.8.8 7.7 1 8.5.2.8.7 5.1 1 9.5.4 4.4.8 9.6 1.1 11.5.2 1.9.6 6.4.9 10 .3 3.6.8 8.1 1 10 .5 4.3 1.4 15.1 2 25.1.2 4.2.7 9.9 1 12.7.4 3.4.2 5.3-.6 5.8-1.4.8-16.7 1.2-17.9.4-1.2-.7-1.7-4.6-2.5-18-.4-6.3-.8-12.7-1-14.3-.2-1.5-.7-6.2-1-10.5-.4-4.2-.8-8.8-1-10.2-.2-1.4-.7-5.4-1-9-.3-3.6-.7-8.1-1-10-.2-1.9-.7-6-1-9-.8-7.4-6.4-51.6-7.1-56-1-7.3-2.5-17.6-3-21.5-1.2-9.5-7.6-50.2-8.1-51.9-.3-1 0-2.1.5-2.5 1.8-1.1 21.5-.7 21.8.4zm92.7 2c-.2 1.7-1.4 12.2-2.8 23.5s-2.7 22.5-3 25c-.3 2.5-.8 5.6-1 7-.5 2.6-1.2 7.7-2.1 14.5-.2 2.2-.9 6.2-1.4 9-.5 2.7-1.1 6.8-1.4 9.1-1.8 14.6-8 46.7-12.6 65.1-2.7 10.9-8.3 26.9-11.3 32.1l-2.3 4.2v-24.5c.1-20.7.3-24.5 1.5-24.5 2.6 0 6.1-4.2 6.1-7.4 0-3.3-3.4-7.6-6-7.6-1.3 0-1.6-1.1-1.7-6.1 0-5.6.2-6.1 2.5-7 3.4-1.3 5.1-3.8 5.2-7.3 0-3.3-3.4-7.6-6-7.6-1.3 0-1.6-1.1-1.5-6.1 0-5.9.1-6.1 3.2-7.4 5.9-2.5 5.2-12.5-1-14-2.1-.6-2.3-1.2-2.3-6.7.1-5.5.3-6.2 2.5-7 5.4-2 6.8-8.2 2.6-12.3-1.3-1.4-3-2.5-3.8-2.5-1 0-1.3-1.6-1.3-6.1.1-5.6.3-6.3 2.5-7.1 5.6-2 7-9.2 2.5-12.7-1.5-1.2-3.2-2.1-3.8-2.1-1.3 0-1.8-15.2-.5-16 .4-.3 9-.5 19.1-.5h18.3l-.2 3z"/><path d="M376.9 306.3c-4.1 3.1-4.4 9-.7 12.4 1.7 1.5 3.9 1.8 14.4 1.8 11.4 0 12.5-.2 14.6-2.2 3.1-3.2 3.2-7.6.1-10.8-2.5-2.4-3-2.5-14.7-2.5-7.9.1-12.6.5-13.7 1.3zM101.5 355.8c-5.3 1-7.2 8.6-3 12.7 2.4 2.5 2.4 2.5 23.9 2.5 13.6 0 22.4-.4 23.9-1.1 4.8-2.2 5.7-8.4 1.7-12.4-1.9-1.9-3.3-2-23.3-2.1-11.6 0-22.1.2-23.2.4zM394.5 391.8c-4.9 2.5-5.8 7.6-2.1 11.8l2.3 2.8 21.9.1c12 .1 23.2-.3 24.8-.8 5.7-1.9 6.5-10.8 1.2-13.7-3.4-1.7-44.8-2-48.1-.2zM360.9 431c-7.4 1.5-9.6 8.1-4.4 13 2.3 2.1 3.2 2.2 22.2 2.2 26 0 24.8.1 27.2-2 4-3.3 2.7-11.2-2.1-12.8-2.6-.9-39-1.2-42.9-.4zM71 445.3c-6.1 1.6-7.1 10.7-1.4 13.7 1.6.9 6.2 1.3 14.1 1.3 11.6-.1 11.7-.1 14-2.9 2.9-3.7 2.9-6.6 0-9.9-2.2-2.6-2.7-2.7-12.9-2.9-5.9 0-12.1.2-13.8.7z"/></svg>